-17.6501 -10.3035 4.415152792960114
-14.650099999999998 -10.3035 6.83388052181725
-11.650099999999998 -10.3035 8.787355340344831
-8.650099999999998 -10.3035 10.27556166020922
-5.650099999999998 -10.3035 11.307736656403875
-2.6500999999999983 -10.3035 11.905215432185827
0.34990000000000165 -10.3035 12.06665258836253
3.3499000000000017 -10.3035 11.801350703227612
6.349900000000002 -10.3035 11.102308074399076
9.349900000000002 -10.3035 9.960990238114974
12.349900000000002 -10.3035 8.360492946844346
15.349900000000002 -10.3035 6.30077674724005
18.3499 -10.3035 3.777721465608778
-17.6501 -7.3035 5.76187247351352
-14.650099999999998 -7.3035 8.196205743194298
-11.650099999999998 -7.3035 10.142460380268773
-8.650099999999998 -7.3035 11.617774529439842
-5.650099999999998 -7.3035 12.639725779685278
-2.6500999999999983 -7.3035 13.229665169339413
0.34990000000000165 -7.3035 13.393684127195485
3.3499000000000017 -7.3035 13.133139564308436
6.349900000000002 -7.3035 12.445717254356566
9.349900000000002 -7.3035 11.314645596021919
12.349900000000002 -7.3035 9.723381728980229
15.349900000000002 -7.3035 7.6559500643822105
18.3499 -7.3035 5.111595552827211
-17.6501 -4.3035 6.6592894352898355
-14.650099999999998 -4.3035 9.10719786746344
-11.650099999999998 -4.3035 11.059028170463222
-8.650099999999998 -4.3035 12.530546660520912
-5.650099999999998 -4.3035 13.547238409390019
-2.6500999999999983 -4.3035 14.134286182038892
0.34990000000000165 -4.3035 14.298096642008929
3.3499000000000017 -4.3035 14.050179770542883
6.349900000000002 -4.3035 13.372452153733164
9.349900000000002 -4.3035 12.244315237631682
12.349900000000002 -4.3035 10.647396220980639
15.349900000000002 -4.3035 8.563416689055487
18.3499 -4.3035 6.000283636894508
-17.6501 -1.3034999999999997 7.09243397614263
-14.650099999999998 -1.3034999999999997 9.550205955612086
-11.650099999999998 -1.3034999999999997 11.509134084834798
-8.650099999999998 -1.3034999999999997 12.979192183945841
-5.650099999999998 -1.3034999999999997 13.994845628403183
-2.6500999999999983 -1.3034999999999997 14.578377631001956
0.34990000000000165 -1.3034999999999997 14.749091820396444
3.3499000000000017 -1.3034999999999997 14.509251627600875
6.349900000000002 -1.3034999999999997 13.838209778847187
9.349900000000002 -1.3034999999999997 12.710870404029393
12.349900000000002 -1.3034999999999997 11.101453654553879
15.349900000000002 -1.3034999999999997 9.007841435085169
18.3499 -1.3034999999999997 6.431238174129831
-17.6501 1.6965000000000003 7.067749115216898
-14.650099999999998 1.6965000000000003 9.52274669570636
-11.650099999999998 1.6965000000000003 11.481197834759541
-8.650099999999998 1.6965000000000003 12.950929755732815
-5.650099999999998 1.6965000000000003 13.967035931190509
-2.6500999999999983 1.6965000000000003 14.550676025122726
0.34990000000000165 1.6965000000000003 14.725112181276941
3.3499000000000017 1.6965000000000003 14.479045976774088
6.349900000000002 1.6965000000000003 13.80785387457378
9.349900000000002 1.6965000000000003 12.68003256911372
12.349900000000002 1.6965000000000003 11.070795000201997
15.349900000000002 1.6965000000000003 8.974998202809658
18.3499 1.6965000000000003 6.401460216855156
-17.6501 4.6965 6.576910333528431
-14.650099999999998 4.6965 9.023651058460004
-11.650099999999998 4.6965 10.976239770646544
-8.650099999999998 4.6965 12.446813622378187
-5.650099999999998 4.6965 13.467041081391997
-2.6500999999999983 4.6965 14.049566941262427
0.34990000000000165 4.6965 14.21620420659265
3.3499000000000017 4.6965 13.96575641638394
6.349900000000002 4.6965 13.286430472546783
9.349900000000002 4.6965 12.154510343043526
12.349900000000002 4.6965 10.553288108470667
15.349900000000002 4.6965 8.472981026380893
18.3499 4.6965 5.917907523769159
-17.6501 7.6965 5.630534157006409
-14.650099999999998 7.6965 8.057316414265046
-11.650099999999998 7.6965 10.011176747088086
-8.650099999999998 7.6965 11.486672672562065
-5.650099999999998 7.6965 12.50980019395898
-2.6500999999999983 7.6965 13.095116376231033
0.34990000000000165 7.6965 13.258689626083708
3.3499000000000017 7.6965 12.999684097954571
6.349900000000002 7.6965 12.310112747876772
9.349900000000002 7.6965 11.174970142566508
12.349900000000002 7.6965 9.577175575404993
15.349900000000002 7.6965 7.514858147535975
18.3499 7.6965 4.97752570326702
-17.6501 10.6965 4.236358330513099
-14.650099999999998 10.6965 6.653169154721283
-11.650099999999998 10.6965 8.609093260632037
-8.650099999999998 10.6965 10.096305590926647
-5.650099999999998 10.6965 11.134961671452302
-2.6500999999999983 10.6965 11.732356331112925
0.34990000000000165 10.6965 11.894003000485966
3.3499000000000017 10.6965 11.625445143766655
6.349900000000002 10.6965 10.924356571787627
9.349900000000002 10.6965 9.777419712447553
12.349900000000002 10.6965 8.17726969636567
15.349900000000002 10.6965 6.113735486906904
18.3499 10.6965 3.5995531819027775
